<?xml version="1.0" encoding="UTF-8"?>
<svg version="1.1" xmlns="http://www.w3.org/2000/svg" width="512" height="512">
<path d="M0 0 C1.35859131 -0.00574036 1.35859131 -0.00574036 2.74462891 -0.01159668 C4.65072752 -0.01430654 6.55686391 -0.00701051 8.46289062 0.00976562 C11.36673541 0.03118903 14.26810641 0.00993288 17.171875 -0.015625 C19.03125542 -0.01298156 20.8906343 -0.00785624 22.75 0 C24.04091553 -0.01214539 24.04091553 -0.01214539 25.35791016 -0.02453613 C31.18943573 0.06537852 34.65705436 1.02205842 39.375 4.53125 C42.94039711 8.9861097 43.87994644 11.96633198 43.92089844 17.63818359 C43.93123611 18.32180969 43.94157379 19.00543579 43.95222473 19.70977783 C43.98151957 21.94999195 43.98314896 24.18929739 43.984375 26.4296875 C43.99936579 27.99054676 44.01609483 29.55139022 44.03448486 31.11221313 C44.07807027 35.20567578 44.0981377 39.29892447 44.11322021 43.39257812 C44.13282328 47.57564905 44.17478961 51.75849 44.21484375 55.94140625 C44.29005028 64.1379605 44.34039932 72.33442421 44.375 80.53125 C44.97610596 79.91564209 45.57721191 79.30003418 46.1965332 78.66577148 C46.99406006 77.85696533 47.79158691 77.04815918 48.61328125 76.21484375 C49.79337769 75.01299438 49.79337769 75.01299438 50.99731445 73.78686523 C59.33733407 65.87502201 68.15865493 63.93808059 79.38671875 64.21875 C87.77241331 64.69307635 94.777937 68.30594523 100.375 74.53125 C107.42188299 83.90210504 108.21330304 93.17503814 107.375 104.53125 C104.48441255 120.5949726 84.10309813 134.98255343 73.1475718 145.95886683 C71.66270945 147.44669163 70.17842248 148.93508823 68.69429588 150.42364693 C64.03211763 155.09942284 59.36800004 159.77325093 54.70096523 164.44417948 C49.34517815 169.8044629 43.99603275 175.17126146 38.65244228 180.54370302 C34.49439396 184.72341019 30.33055734 188.89729348 26.16233319 193.06685263 C23.68373236 195.54649618 21.20756861 198.02845658 18.73745155 200.51655388 C15.98737109 203.28627364 13.22531783 206.0438625 10.4621582 208.80053711 C9.6572847 209.6146254 8.85241119 210.42871368 8.02314758 211.26747131 C-2.07774009 221.29441809 -10.2119995 224.83091175 -24.43847656 224.81835938 C-25.62297897 224.82519241 -26.80748138 224.83202545 -28.02787781 224.83906555 C-31.26571718 224.85617689 -34.50345072 224.86473829 -37.74132633 224.87010384 C-41.14129617 224.87832733 -44.54118395 224.89925916 -47.94110107 224.91931152 C-56.58569552 224.96819384 -65.23032479 225.00054296 -73.875 225.03125 C-83.19574889 225.06439714 -92.51643333 225.10050966 -101.83708358 225.15538073 C-105.21539748 225.17480125 -108.59362526 225.19010408 -111.97199249 225.19572449 C-115.74607007 225.20320086 -119.51992617 225.22249752 -123.29394531 225.24414062 C-124.39870712 225.24315872 -125.50346893 225.24217682 -126.64170837 225.24116516 C-143.90713425 225.37850881 -153.70713774 230.52171188 -165.625 242.53125 C-166.285 243.52125 -166.945 244.51125 -167.625 245.53125 C-167.12049316 246.0252832 -166.61598633 246.51931641 -166.09619141 247.02832031 C-163.80887109 249.27401467 -161.52939218 251.52751015 -159.25 253.78125 C-158.4559375 254.55855469 -157.661875 255.33585938 -156.84375 256.13671875 C-156.08320313 256.89082031 -155.32265625 257.64492188 -154.5390625 258.421875 C-153.8373291 259.11313477 -153.1355957 259.80439453 -152.41259766 260.51660156 C-149.02136778 264.33856673 -148.31447659 267.33838966 -148.25 272.40625 C-148.22164062 273.41429687 -148.19328125 274.42234375 -148.1640625 275.4609375 C-149.2397844 282.62633929 -155.39404776 287.59394774 -160.3125 292.484375 C-161.05201904 293.2258075 -161.79153809 293.96723999 -162.5534668 294.73114014 C-164.11098675 296.29001596 -165.67101475 297.84638951 -167.23339844 299.40039062 C-169.62408561 301.78033972 -172.00388184 304.17080579 -174.3828125 306.5625 C-175.90040055 308.07876695 -177.41860862 309.59441364 -178.9375 311.109375 C-179.64801514 311.8239386 -180.35853027 312.5385022 -181.09057617 313.27471924 C-181.75806885 313.93590759 -182.42556152 314.59709595 -183.11328125 315.27832031 C-183.69634033 315.85978821 -184.27939941 316.4412561 -184.88012695 317.04034424 C-188.58930024 320.2096452 -191.67027755 320.84480315 -196.5 320.90625 C-197.50804687 320.93460937 -198.51609375 320.96296875 -199.5546875 320.9921875 C-205.73709695 320.06403952 -210.01054997 315.43867498 -214.26837158 311.1418457 C-215.07023742 310.34465984 -215.07023742 310.34465984 -215.88830256 309.53136921 C-217.6663057 307.76130057 -219.43712483 305.98422111 -221.20800781 304.20703125 C-222.48600607 302.9317448 -223.76442903 301.65688384 -225.04324341 300.38241577 C-228.5062768 296.92848411 -231.96297323 293.46827529 -235.41828251 290.0066185 C-239.0364996 286.38333217 -242.65960032 282.76493451 -246.28192139 279.14575195 C-252.36147233 273.06983702 -258.43679967 266.9897228 -264.50976562 260.90722656 C-271.53269802 253.87340055 -278.5628196 246.8468217 -285.59669995 239.82394505 C-291.63700479 233.79271178 -297.67340886 227.75759522 -303.70656085 221.71920681 C-307.30946083 218.11318769 -310.91370115 214.50853618 -314.52146149 210.90737915 C-317.91095763 207.52365426 -321.29553532 204.13508583 -324.67635727 200.74269485 C-325.91867133 199.49773347 -327.16269573 198.25447613 -328.408535 197.01304245 C-330.10687393 195.32015715 -331.79895036 193.62125047 -333.48956299 191.9206543 C-333.98546787 191.42921086 -334.48137274 190.93776743 -334.99230504 190.43143177 C-339.42210996 185.95063935 -340.91996192 182.9472433 -341 176.65625 C-341.02835937 175.64820313 -341.05671875 174.64015625 -341.0859375 173.6015625 C-340.0102156 166.43616071 -333.85595224 161.46855226 -328.9375 156.578125 C-327.82822144 155.46597626 -327.82822144 155.46597626 -326.6965332 154.33135986 C-325.13901325 152.77248404 -323.57898525 151.21611049 -322.01660156 149.66210938 C-319.62591439 147.28216028 -317.24611816 144.89169421 -314.8671875 142.5 C-313.34959945 140.98373305 -311.83139138 139.46808636 -310.3125 137.953125 C-309.60198486 137.2385614 -308.89146973 136.5239978 -308.15942383 135.78778076 C-307.49193115 135.12659241 -306.82443848 134.46540405 -306.13671875 133.78417969 C-305.55365967 133.20271179 -304.97060059 132.6212439 -304.36987305 132.02215576 C-299.7432254 128.06891937 -295.41744162 128.09496658 -289.51953125 128.23046875 C-281.81839188 129.0307221 -276.72118846 136.231214 -271.625 141.53125 C-267.16465706 140.11204997 -264.29652442 137.66508273 -261 134.46875 C-256.25514498 129.98855997 -251.35881802 125.80547024 -246.2734375 121.7109375 C-243.65224881 119.55367601 -241.13345719 117.31814 -238.625 115.03125 C-234.394801 111.17647278 -230.02640104 107.54048359 -225.55859375 103.96484375 C-224.59050781 103.16175781 -223.62242187 102.35867188 -222.625 101.53125 C-221.89187592 101.01137009 -221.15875183 100.49149017 -220.40341187 99.95585632 C-215.53197426 96.22874012 -215.53197426 96.22874012 -212.82063293 90.88713074 C-212.55675998 87.8255587 -212.55994613 84.87564779 -212.66796875 81.8046875 C-212.66799393 80.69823883 -212.6680191 79.59179016 -212.66804504 78.45181274 C-212.67392401 74.9348282 -212.73946723 71.42242814 -212.8125 67.90625 C-212.85896306 64.38372441 -212.8923741 60.86208201 -212.90339661 57.33926392 C-212.91291425 55.1531557 -212.94409895 52.96700486 -212.99980164 50.78158569 C-213.05519116 44.87621981 -212.90320445 41.0119449 -208.625 36.53125 C-203.10770054 32.42750183 -198.75682059 31.93642946 -192 32 C-190.64140869 31.99425964 -190.64140869 31.99425964 -189.25537109 31.98840332 C-187.34927248 31.98569346 -185.44313609 31.99298949 -183.53710938 32.00976562 C-180.63326459 32.03118903 -177.73189359 32.00993288 -174.828125 31.984375 C-172.96874458 31.98701844 -171.1093657 31.99214376 -169.25 32 C-167.95908447 31.98785461 -167.95908447 31.98785461 -166.64208984 31.97546387 C-160.81056427 32.06537852 -157.34294564 33.02205842 -152.625 36.53125 C-148.29070188 41.37271569 -148.02488566 45.45191957 -148.015625 51.6484375 C-147.99908875 52.50559357 -147.98255249 53.36274963 -147.96551514 54.24588013 C-147.91718337 56.96607738 -147.89569762 59.68571621 -147.875 62.40625 C-147.84682785 64.25784037 -147.81689868 66.1094049 -147.78515625 67.9609375 C-147.71142862 72.48432899 -147.6617637 77.00741319 -147.625 81.53125 C-146.93535156 81.77141846 -146.24570313 82.01158691 -145.53515625 82.2590332 C-139.38884571 84.4400671 -133.48569052 86.86340444 -127.625 89.71875 C-126.16737188 90.42203642 -124.70906597 91.12392024 -123.25 91.82421875 C-122.62351563 92.1286792 -121.99703125 92.43313965 -121.3515625 92.74682617 C-119.44500265 93.64930725 -119.44500265 93.64930725 -116.625 94.53125 C-116.63388245 93.89311371 -116.64276489 93.25497742 -116.6519165 92.59750366 C-116.74051746 85.94644135 -116.80078744 79.29554713 -116.84472656 72.64404297 C-116.86482241 70.16285389 -116.89210384 67.68171205 -116.92675781 65.20068359 C-116.97536294 61.63106618 -116.99798972 58.06207584 -117.015625 54.4921875 C-117.04659271 52.83248428 -117.04659271 52.83248428 -117.07818604 51.13925171 C-117.07992604 45.14603821 -116.99090565 41.05882314 -112.625 36.53125 C-107.10770054 32.42750183 -102.75682059 31.93642946 -96 32 C-94.64140869 31.99425964 -94.64140869 31.99425964 -93.25537109 31.98840332 C-91.34927248 31.98569346 -89.44313609 31.99298949 -87.53710938 32.00976562 C-84.63326459 32.03118903 -81.73189359 32.00993288 -78.828125 31.984375 C-76.96874458 31.98701844 -75.1093657 31.99214376 -73.25 32 C-72.38938965 31.99190308 -71.5287793 31.98380615 -70.64208984 31.97546387 C-63.48825206 32.08576688 -59.32041754 33.76656536 -54.21191406 39.00634766 C-51.83416472 44.28787766 -52.13162901 49.20533248 -52.234375 54.9296875 C-52.24003479 56.11978424 -52.24569458 57.30988098 -52.25152588 58.53604126 C-52.27386549 62.32652486 -52.32406037 66.11605345 -52.375 69.90625 C-52.39506799 72.48045507 -52.41331823 75.054675 -52.4296875 77.62890625 C-52.47372255 83.93001178 -52.54061195 90.23056265 -52.625 96.53125 C-50.72923218 96.51070557 -50.72923218 96.51070557 -48.79516602 96.48974609 C-41.24359703 96.40790975 -34.6421694 99.72318836 -29.16015625 104.81640625 C-25.77811153 108.59431371 -23.22679308 112.72587075 -21.625 117.53125 C-21.62280016 116.7123721 -21.62280016 116.7123721 -21.62055588 115.87695122 C-21.58347066 102.58078659 -21.52418162 89.2848797 -21.44109726 75.98892021 C-21.40158709 69.55900933 -21.36941578 63.12923613 -21.35400391 56.69921875 C-21.33886095 50.49395963 -21.30445659 44.28907895 -21.25669098 38.08398819 C-21.24185295 35.71655695 -21.2339576 33.34907168 -21.23311615 30.98159409 C-21.23075214 27.66554153 -21.20371619 24.35053959 -21.17089844 21.03466797 C-21.1759288 20.0557106 -21.18095917 19.07675323 -21.18614197 18.06813049 C-21.09927101 12.39510822 -20.4934012 8.98499348 -16.625 4.53125 C-11.10770054 0.42750183 -6.75682059 -0.06357054 0 0 Z M-21.625 136.53125 C-21.85574219 137.18351563 -22.08648437 137.83578125 -22.32421875 138.5078125 C-25.73313116 147.64315881 -29.84750647 152.99706718 -38.625 157.53125 C-42.125 158.84375 -42.125 158.84375 -44.625 159.53125 C-44.625 159.86125 -44.625 160.19125 -44.625 160.53125 C-40.98665254 161.58754442 -38.28008997 161.56263677 -34.625 160.53125 C-28.52890334 156.5294783 -21.75339426 150.53012089 -19.734375 143.375 C-19.74843849 140.92795326 -19.94418643 138.87627452 -20.625 136.53125 C-20.955 136.53125 -21.285 136.53125 -21.625 136.53125 Z " fill="#FEDBB6" transform="translate(372.625,159.46875)"/>
<path d="M0 0 C7.57349581 3.33233816 13.75470266 11.36331408 19.08522034 17.58763123 C23.29056785 22.4026616 27.77220004 26.91248155 32.29663086 31.42602539 C33.20163834 32.33278519 34.10664581 33.23954498 35.03907776 34.17378235 C37.4996116 36.63883707 39.96325225 39.10076381 42.42763972 41.56196523 C45.01988161 44.15165568 47.60966041 46.74380755 50.19984436 49.33555603 C54.54801959 53.68554488 58.89828586 58.03343417 63.24975586 62.38012695 C68.26342757 67.3883576 73.27348695 72.40018022 78.28168577 77.41388327 C82.60023672 81.73698841 86.92075361 86.05812153 91.2428866 90.37764543 C93.81619044 92.94939916 96.38883517 95.52180247 98.95969963 98.09599495 C101.82825322 100.96800312 104.70091845 103.83586518 107.57397461 106.70336914 C108.41318451 107.54460327 109.25239441 108.3858374 110.11703491 109.25256348 C114.37787474 113.49822947 118.70595904 117.59649443 123.27697086 121.50757504 C125.920451 123.79726107 128.39305309 126.22313062 130.875 128.6875 C131.80054688 129.59886719 132.72609375 130.51023437 133.6796875 131.44921875 C137.44624518 135.58989579 138.30384329 138.28208291 138.375 143.875 C138.40335938 144.88304687 138.43171875 145.89109375 138.4609375 146.9296875 C137.3852156 154.09508929 131.23095224 159.06269774 126.3125 163.953125 C125.57298096 164.6945575 124.83346191 165.43598999 124.0715332 166.19989014 C122.51401325 167.75876596 120.95398525 169.31513951 119.39160156 170.86914062 C117.00091439 173.24908972 114.62111816 175.63955579 112.2421875 178.03125 C110.72459945 179.54751695 109.20639138 181.06316364 107.6875 182.578125 C106.97698486 183.2926886 106.26646973 184.0072522 105.53442383 184.74346924 C104.53318481 185.73525177 104.53318481 185.73525177 103.51171875 186.74707031 C102.92865967 187.32853821 102.34560059 187.9100061 101.74487305 188.50909424 C98.03569976 191.6783952 94.95472245 192.31355315 90.125 192.375 C89.11695313 192.40335938 88.10890625 192.43171875 87.0703125 192.4609375 C80.88790305 191.53278952 76.61445003 186.90742498 72.35662842 182.6105957 C71.55476258 181.81340984 71.55476258 181.81340984 70.73669744 181.00011921 C68.9586943 179.23005057 67.18787517 177.45297111 65.41699219 175.67578125 C64.13899393 174.4004948 62.86057097 173.12563384 61.58175659 171.85116577 C58.1187232 168.39723411 54.66202677 164.93702529 51.20671749 161.4753685 C47.5885004 157.85208217 43.96539968 154.23368451 40.34307861 150.61450195 C34.26352767 144.53858702 28.18820033 138.4584728 22.11523438 132.37597656 C15.09230198 125.34215055 8.0621804 118.3155717 1.02830005 111.29269505 C-5.01200479 105.26146178 -11.04840886 99.22634522 -17.08156085 93.18795681 C-20.68446083 89.58193769 -24.28870115 85.97728618 -27.89646149 82.37612915 C-31.28595763 78.99240426 -34.67053532 75.60383583 -38.05135727 72.21144485 C-39.29367133 70.96648347 -40.53769573 69.72322613 -41.783535 68.48179245 C-43.48187393 66.78890715 -45.17395036 65.09000047 -46.86456299 63.3894043 C-47.6084203 62.65223915 -47.6084203 62.65223915 -48.36730504 61.90018177 C-52.79710996 57.41938935 -54.29496192 54.4159933 -54.375 48.125 C-54.40335938 47.11695313 -54.43171875 46.10890625 -54.4609375 45.0703125 C-53.3852156 37.90491071 -47.23095224 32.93730226 -42.3125 28.046875 C-41.57298096 27.3054425 -40.83346191 26.56401001 -40.0715332 25.80010986 C-38.51401325 24.24123404 -36.95398525 22.68486049 -35.39160156 21.13085938 C-33.00091439 18.75091028 -30.62111816 16.36044421 -28.2421875 13.96875 C-26.72459945 12.45248305 -25.20639138 10.93683636 -23.6875 9.421875 C-22.97698486 8.7073114 -22.26646973 7.9927478 -21.53442383 7.25653076 C-20.86693115 6.59534241 -20.19943848 5.93415405 -19.51171875 5.25292969 C-18.92865967 4.67146179 -18.34560059 4.0899939 -17.74487305 3.49090576 C-12.46314075 -1.02206733 -6.6420498 -0.68215647 0 0 Z " fill="#23A7F0" transform="translate(86,288)"/>
<path d="M0 0 C0.73250977 -0.00700928 1.46501953 -0.01401855 2.21972656 -0.02124023 C4.62604382 -0.03875584 7.03117209 -0.02722142 9.4375 -0.01367188 C11.11849186 -0.01636866 12.79948221 -0.02025264 14.48046875 -0.02526855 C17.99754743 -0.03115485 21.5142188 -0.02262896 25.03125 -0.00390625 C29.53052189 0.01888312 34.02883927 0.00575532 38.52807617 -0.01819611 C41.99746847 -0.03267779 45.46663594 -0.02803731 48.93603516 -0.01768494 C50.59456496 -0.01502418 52.25311544 -0.01826444 53.91162109 -0.02760315 C56.23329421 -0.03780834 58.55344011 -0.02221466 60.875 0 C62.19371094 0.00318237 63.51242187 0.00636475 64.87109375 0.00964355 C70.3879267 0.79536172 73.2388314 3.0964897 76.78015137 7.29492188 C78.76746485 11.15918319 78.94461752 13.74541501 78.95507812 18.08007812 C78.96559204 19.17884277 78.96559204 19.17884277 78.97631836 20.29980469 C78.99383397 22.70612195 78.98229954 25.11125021 78.96875 27.51757812 C78.97144679 29.19856999 78.97533077 30.87956033 78.98034668 32.56054688 C78.98623298 36.07762556 78.97770709 39.59429692 78.95898438 43.11132812 C78.93619501 47.61060002 78.9493228 52.10891739 78.97327423 56.6081543 C78.98775591 60.07754659 78.98311544 63.54671407 78.97276306 67.01611328 C78.97010231 68.67464309 78.97334257 70.33319357 78.98268127 71.99169922 C78.99288646 74.31337233 78.97729279 76.63351823 78.95507812 78.95507812 C78.95189575 80.27378906 78.94871338 81.5925 78.94543457 82.95117188 C78.19142424 88.24537179 75.74548979 91.27498783 71.9375 94.89257812 C66.77249991 97.29061388 62.0372712 97.27139348 56.4375 96.51757812 C51.45821169 94.20576569 49.13692396 91.22931268 46.4375 86.51757812 C45.89160156 83.17431641 45.89160156 83.17431641 45.828125 79.58789062 C45.79589844 78.29882812 45.76367188 77.00976562 45.73046875 75.68164062 C45.7157277 74.33529097 45.70141 72.98893662 45.6875 71.64257812 C45.65931288 70.27274909 45.62938163 68.90295478 45.59765625 67.53320312 C45.52712243 64.1946021 45.47434015 60.85669298 45.4375 57.51757812 C44.55715088 58.41887451 43.67680176 59.3201709 42.76977539 60.2487793 C39.42387711 63.6684205 36.06365228 67.07370178 32.69946289 70.4753418 C31.2597958 71.93482448 29.82377011 73.3979103 28.3918457 74.86499023 C13.97764574 89.62347035 -1.10232872 102.16442468 -19.5625 111.51757812 C-20.19397949 111.83952148 -20.82545898 112.16146484 -21.47607422 112.49316406 C-41.09385169 122.37029294 -62.77316124 128.62246542 -84.82080078 128.69458008 C-86.1540892 128.70443687 -86.1540892 128.70443687 -87.51431274 128.7144928 C-90.42881372 128.7340587 -93.34326383 128.7458451 -96.2578125 128.75585938 C-97.25798275 128.7599349 -98.258153 128.76401043 -99.28863144 128.76820946 C-104.57344094 128.78898966 -109.85822502 128.80333112 -115.14306641 128.81274414 C-120.59498585 128.82384722 -126.04650154 128.85831486 -131.49827766 128.89791584 C-135.70019288 128.9240482 -139.90201076 128.93243252 -144.10400009 128.93602562 C-146.11423371 128.94089306 -148.12446295 128.95251151 -150.13461685 128.97106361 C-152.94440348 128.99540359 -155.75312858 128.99450052 -158.56298828 128.98754883 C-159.80218018 129.00676392 -159.80218018 129.00676392 -161.06640625 129.02636719 C-166.374984 128.97854372 -169.33000725 127.99866943 -173.5625 124.51757812 C-177.19083663 120.6982764 -177.87250458 117.63478806 -178.0625 112.51757812 C-177.87250458 107.40036819 -177.19083663 104.33687985 -173.5625 100.51757812 C-169.02713566 96.94479585 -166.07739909 96.01646307 -160.32983398 96.00341797 C-159.63117218 95.99629288 -158.93251038 95.98916779 -158.212677 95.98182678 C-155.91102508 95.96259626 -153.61029921 95.97082634 -151.30859375 95.97851562 C-149.6859455 95.96858886 -148.0633085 95.95664017 -146.44068909 95.94277954 C-142.16288502 95.91042789 -137.88533617 95.90003268 -133.60742188 95.89593506 C-126.0077066 95.88615078 -118.40811193 95.84503406 -110.80859375 95.79101562 C-109.99716415 95.78555725 -109.18573456 95.78009888 -108.34971619 95.7744751 C-57.97321488 95.38873174 -24.77726997 80.09102263 10.5625 44.45507812 C11.62476206 43.38778396 12.68726083 42.32072534 13.75 41.25390625 C16.31522359 38.67782887 18.8772678 36.09861741 21.4375 33.51757812 C20.5904248 33.50823242 19.74334961 33.49888672 18.87060547 33.48925781 C15.70555648 33.44505201 12.54145188 33.38335286 9.37695312 33.31005859 C8.01151836 33.2819619 6.64592436 33.26069135 5.28027344 33.24658203 C3.30895962 33.2249983 1.33800369 33.17622353 -0.6328125 33.12695312 C-1.81633301 33.10600586 -2.99985352 33.08505859 -4.21923828 33.06347656 C-9.33360472 32.2283865 -12.4277791 29.71202118 -15.9375 26.01757812 C-18.33553575 20.85257804 -18.31631535 16.11734933 -17.5625 10.51757812 C-13.97822937 2.79761062 -8.2761305 0.01997233 0 0 Z " fill="#3CDC7F" transform="translate(337.5625,31.482421875)"/>
<path d="M0 0 C1.35859131 -0.00574036 1.35859131 -0.00574036 2.74462891 -0.01159668 C4.65072752 -0.01430654 6.55686391 -0.00701051 8.46289062 0.00976562 C11.36673541 0.03118903 14.26810641 0.00993288 17.171875 -0.015625 C19.03125542 -0.01298156 20.8906343 -0.00785624 22.75 0 C24.04091553 -0.01214539 24.04091553 -0.01214539 25.35791016 -0.02453613 C31.18943573 0.06537852 34.65705436 1.02205842 39.375 4.53125 C47.30806717 14.88103063 46.84503482 30.80963664 47.5625 43.46875 C47.61072277 44.27352154 47.65894554 45.07829308 47.70862961 45.90745163 C48.84633995 67.27802697 45.74266132 83.67941585 31.42017937 100.11247826 C25.2405118 106.94636353 18.71587231 113.35695412 11.9375 119.59375 C10.81093805 120.63063021 10.81093805 120.63063021 9.66161728 121.68845749 C-17.51174815 146.53125 -17.51174815 146.53125 -20.625 146.53125 C-20.7184737 128.90271418 -20.788994 111.27425579 -20.83224869 93.64552879 C-20.85286712 85.46005337 -20.88097386 77.27473201 -20.92675781 69.08935547 C-20.96664773 61.95432355 -20.99243804 54.8194032 -21.00135398 47.68426287 C-21.00656513 43.90679334 -21.01879785 40.129643 -21.04792023 36.35227585 C-21.07512368 32.79489612 -21.08343524 29.23796627 -21.07743073 25.6804924 C-21.07905131 23.75643926 -21.1005484 21.83243483 -21.12268066 19.9085083 C-21.07205292 9.29643237 -21.07205292 9.29643237 -16.625 4.53125 C-11.10770054 0.42750183 -6.75682059 -0.06357054 0 0 Z " fill="#3DDC7F" transform="translate(372.625,159.46875)"/>
<path d="M0 0 C1.35859131 -0.00574036 1.35859131 -0.00574036 2.74462891 -0.01159668 C4.65072752 -0.01430654 6.55686391 -0.00701051 8.46289062 0.00976562 C11.36673541 0.03118903 14.26810641 0.00993288 17.171875 -0.015625 C19.03125542 -0.01298156 20.8906343 -0.00785624 22.75 0 C24.04091553 -0.01214539 24.04091553 -0.01214539 25.35791016 -0.02453613 C32.51174794 0.08576688 36.67958246 1.76656536 41.78808594 7.00634766 C44.16583528 12.28787766 43.86837099 17.20533248 43.765625 22.9296875 C43.75996521 24.11978424 43.75430542 25.30988098 43.74847412 26.53604126 C43.72613451 30.32652486 43.67593963 34.11605345 43.625 37.90625 C43.60493201 40.48045507 43.58668177 43.054675 43.5703125 45.62890625 C43.52627745 51.93001178 43.45938805 58.23056265 43.375 64.53125 C35.32574899 64.55439421 27.27651183 64.57217572 19.22723579 64.58306217 C15.4898575 64.58828644 11.75250193 64.59537584 8.01513672 64.60668945 C4.41010184 64.6175345 0.80508884 64.62353028 -2.79996109 64.62612724 C-4.17710846 64.62797857 -5.55425459 64.6315936 -6.93139267 64.63698006 C-8.85643094 64.64421181 -10.78149112 64.64465824 -12.70654297 64.64477539 C-13.80352509 64.646996 -14.9005072 64.64921661 -16.0307312 64.65150452 C-18.625 64.53125 -18.625 64.53125 -20.625 63.53125 C-20.72653917 56.09321775 -20.79652433 48.6553647 -20.84472656 41.21679688 C-20.86482405 38.68710653 -20.89210668 36.15746254 -20.92675781 33.62792969 C-20.97535556 29.98881583 -20.99798812 26.350317 -21.015625 22.7109375 C-21.04659271 21.01842361 -21.04659271 21.01842361 -21.07818604 19.29171753 C-21.0799053 13.25600507 -21.03788955 9.08254463 -16.625 4.53125 C-11.10770054 0.42750183 -6.75682059 -0.06357054 0 0 Z " fill="#FFCE4A" transform="translate(276.625,191.46875)"/>
<path d="M0 0 C1.35859131 -0.00574036 1.35859131 -0.00574036 2.74462891 -0.01159668 C4.65072752 -0.01430654 6.55686391 -0.00701051 8.46289062 0.00976562 C11.36673541 0.03118903 14.26810641 0.00993288 17.171875 -0.015625 C19.03125542 -0.01298156 20.8906343 -0.00785624 22.75 0 C24.04091553 -0.01214539 24.04091553 -0.01214539 25.35791016 -0.02453613 C31.18943573 0.06537852 34.65705436 1.02205842 39.375 4.53125 C43.82398738 9.44746208 43.91970391 13.56836659 43.765625 19.8671875 C43.75996521 20.74653961 43.75430542 21.62589172 43.74847412 22.53189087 C43.72619084 25.32391182 43.67601063 28.11462092 43.625 30.90625 C43.60492454 32.80597097 43.58667561 34.70571218 43.5703125 36.60546875 C43.52635256 41.24789666 43.45738182 45.88935137 43.375 50.53125 C42.17302979 50.37116455 40.97105957 50.2110791 39.73266602 50.04614258 C17.44763291 47.26996689 -1.83906992 50.00729662 -20.625 62.53125 C-20.72655026 55.23563547 -20.79652891 47.94020371 -20.84472656 40.64404297 C-20.86482241 38.16285389 -20.89210384 35.68171205 -20.92675781 33.20068359 C-20.97536294 29.63106618 -20.99798972 26.06207584 -21.015625 22.4921875 C-21.04659271 20.83248428 -21.04659271 20.83248428 -21.07818604 19.13925171 C-21.07992604 13.14603821 -20.99090565 9.05882314 -16.625 4.53125 C-11.10770054 0.42750183 -6.75682059 -0.06357054 0 0 Z " fill="#FF7B6C" transform="translate(180.625,191.46875)"/>
<path d="M0 0 C6.02740137 5.62219792 8.13055017 11.68443448 8.47705078 19.91137695 C8.58644982 29.86785294 6.62670133 38.05562787 -0.296875 45.46875 C-8.16259515 52.54068188 -16.09667031 54.29932787 -26.42407227 54.30639648 C-27.46054901 54.31472 -28.49702576 54.32304352 -29.56491089 54.33161926 C-32.98211446 54.35566461 -36.39912713 54.36448299 -39.81640625 54.37109375 C-42.19481971 54.38006129 -44.57323259 54.38918316 -46.9516449 54.39845276 C-51.93221406 54.41492836 -56.91271609 54.4226408 -61.89331055 54.42553711 C-68.27814724 54.43093212 -74.66235466 54.46866521 -81.04701328 54.51428127 C-85.9566225 54.54399933 -90.86607883 54.55125947 -95.77577019 54.55226326 C-98.13013542 54.55647275 -100.48450082 54.56893605 -102.83877754 54.58978081 C-106.12810051 54.61659663 -109.41594631 54.61189909 -112.70532227 54.59936523 C-113.67844864 54.61419952 -114.65157501 54.62903381 -115.65419006 54.64431763 C-120.2621727 54.59424546 -122.33398908 54.50416248 -126.10435486 51.65003967 C-128 49 -128 49 -128.625 46 C-127.76388061 41.86662694 -126.32788318 40.58053116 -123 38 C-119.9531666 37.28534748 -116.98846129 37.33951754 -113.87036133 37.38818359 C-112.50347672 37.37968636 -112.50347672 37.37968636 -111.10897827 37.37101746 C-108.0995762 37.35752564 -105.09138066 37.37846037 -102.08203125 37.3984375 C-99.98320188 37.39293559 -97.88437789 37.38480943 -95.78556824 37.37417603 C-90.25731167 37.35127585 -84.72945018 37.35551191 -79.20117188 37.36798096 C-70.37114168 37.38627083 -61.54134566 37.37620055 -52.71137047 37.34212112 C-49.63705445 37.33604623 -46.56324419 37.34924483 -43.4889679 37.36410522 C-41.58484775 37.36115449 -39.68072852 37.35749818 -37.77661133 37.35302734 C-36.50984306 37.36696281 -36.50984306 37.36696281 -35.21748352 37.38117981 C-25.55169485 37.31746194 -16.22267697 34.62884311 -9 28 C-3.94854826 21.2503086 -0.88633336 14.62450047 -0.375 6.1875 C-0.30023438 5.02605469 -0.22546875 3.86460937 -0.1484375 2.66796875 C-0.07496094 1.34732422 -0.07496094 1.34732422 0 0 Z " fill="#FFC29B" transform="translate(344,266)"/>
<path d="M0 0 C8.07195195 1.89928281 14.82900825 11.2482207 20.52514648 16.95825195 C21.4220369 17.85339005 22.31892731 18.74852814 23.24299622 19.67079163 C25.67872184 22.10199956 28.11132373 24.53630977 30.54319644 26.97137094 C33.09565712 29.52638004 35.65057556 32.07892967 38.20509338 34.63188171 C42.4861018 38.91107763 46.76501215 43.19236296 51.04272461 47.47485352 C55.98971631 52.42730697 60.94032826 57.37611962 65.89279503 62.32309753 C70.15295105 66.57872104 74.41116228 70.83628316 78.66774231 75.09548348 C81.20688322 77.63618372 83.74669588 80.17620254 86.28826714 82.71447182 C89.11357853 85.53636762 91.93480614 88.36232397 94.75561523 91.1887207 C95.59971954 92.03080078 96.44382385 92.87288086 97.31350708 93.74047852 C98.07742264 94.5072139 98.8413382 95.27394928 99.62840271 96.06391907 C100.29553 96.73142339 100.9626573 97.39892771 101.65000057 98.08665943 C103.71349442 100.31904597 104.15656993 101.51802444 104.5625 104.5625 C104.1875 107.75 104.1875 107.75 102.0625 110.625 C99.1875 112.75 99.1875 112.75 96.375 113.5 C88.30304805 111.60071719 81.54599175 102.2517793 75.84985352 96.54174805 C74.9529631 95.64660995 74.05607269 94.75147186 73.13200378 93.82920837 C70.69627816 91.39800044 68.26367627 88.96369023 65.83180356 86.52862906 C63.27934288 83.97361996 60.72442444 81.42107033 58.16990662 78.86811829 C53.8888982 74.58892237 49.60998785 70.30763704 45.33227539 66.02514648 C40.38528369 61.07269303 35.43467174 56.12388038 30.48220497 51.17690247 C26.22204895 46.92127896 21.96383772 42.66371684 17.70725769 38.40451652 C15.16811678 35.86381628 12.62830412 33.32379746 10.08673286 30.78552818 C7.26142147 27.96363238 4.44019386 25.13767603 1.61938477 22.3112793 C0.3532283 21.04815918 0.3532283 21.04815918 -0.93850708 19.75952148 C-2.08438042 18.60941841 -2.08438042 18.60941841 -3.25340271 17.43608093 C-3.92053 16.76857661 -4.5876573 16.10107229 -5.27500057 15.41334057 C-7.33849442 13.18095403 -7.78156993 11.98197556 -8.1875 8.9375 C-7.8125 5.75 -7.8125 5.75 -5.6875 2.875 C-2.8125 0.75 -2.8125 0.75 0 0 Z " fill="#EBEEF0" transform="translate(79.8125,327.25)"/>
</svg>
